<?xml version="1.0" standalone="no"?>
<!DOCTYPE svg PUBLIC "-//W3C//DTD SVG 20010904//EN"
 "http://www.w3.org/TR/2001/REC-SVG-20010904/DTD/svg10.dtd">
<svg version="1.0" xmlns="http://www.w3.org/2000/svg"
 width="70.000000pt" height="70.000000pt" viewBox="0 0 70.000000 70.000000"
 preserveAspectRatio="xMidYMid meet">
<metadata>
Created by potrace 1.14, written by Peter Selinger 2001-2017
</metadata>
<g transform="translate(0.000000,70.000000) scale(0.100000,-0.100000)"
fill="#000000" stroke="none">
<path d="M185 580 c-16 -9 -29 -23 -28 -29 2 -6 -2 -11 -8 -11 -5 0 -7 -4 -4
-10 3 -5 -1 -20 -10 -33 -8 -13 -12 -27 -8 -30 3 -4 1 -7 -6 -7 -7 0 -10 -4
-6 -9 3 -5 0 -15 -7 -23 -7 -7 -15 -24 -16 -38 -2 -14 -8 -27 -13 -28 -5 -2
-7 -8 -3 -13 3 -5 0 -9 -6 -9 -6 0 -9 -4 -6 -9 4 -5 0 -12 -6 -14 -10 -4 -10
-6 0 -6 9 -1 10 -6 3 -19 -6 -11 -17 -38 -25 -62 -15 -43 -15 -43 15 -71 38
-36 85 -45 123 -26 26 14 30 13 48 -5 11 -11 26 -17 35 -14 8 3 94 6 192 6
159 0 179 2 197 19 14 13 20 29 18 52 -2 19 -4 48 -6 66 -1 21 -10 36 -25 44
-26 14 -31 59 -10 97 8 14 11 40 7 70 l-5 47 -159 3 c-148 2 -158 4 -163 22
-3 11 -11 20 -18 20 -7 0 -24 9 -38 20 -29 23 -24 23 -62 0z m382 -121 c-12
-7 -27 -7 -45 0 -25 9 -24 9 18 10 36 0 41 -2 27 -10z"/>
</g>
</svg>
